<?xml version="1.0" encoding="iso-8859-1"?>
<!-- Generator: Adobe Illustrator 19.0.0, SVG Export Plug-In . SVG Version: 6.00 Build 0)  -->
<svg version="1.1" id="Layer_1" xmlns="http://www.w3.org/2000/svg" xmlns:xlink="http://www.w3.org/1999/xlink" x="0px" y="0px"
	 viewBox="0 0 500.004 500.004" style="enable-background:new 0 0 500.004 500.004;" xml:space="preserve">
<g>
	<g>
		<path d="M495.441,107.674c-5.992-14.16-23.516-36.416-73.752-26.368c-40.328,8.064-68.84,11.728-89.656,14.404
			c-3.632,0.464-6.996,0.896-10.104,1.316c-0.108,0.016-0.2,0.036-0.304,0.052c-4.764,0.444-8.352,2.156-10.62,5.16
			c-0.048,0.064-0.072,0.14-0.112,0.2c-13.672,3.212-23.616-4.472-24.032-4.808c-0.02-0.016-0.052-0.016-0.076-0.04
			c-11.904-10.968-30.152-16.36-55.396-16.36c-18.448,0-41.156,2.952-67.484,8.76c-108.6,23.976-124.24,103.924-140.796,188.576
			c-5.28,27.004-10.74,54.908-19.332,81.856c-5.872,18.404-4.892,33.156,2.908,43.868c8.08,11.08,23.16,16.932,43.604,16.932
			c45.62,0,109.52-28.416,159.004-70.716c13.04-11.14,24.752-22.984,35.24-35.328c0.068-0.056,0.152-0.08,0.212-0.14
			c7.604-7.704,14.984-12.66,21.612-15.864c1.948,5.5,0.88,16.436-0.792,23.624c-0.248,1.04-0.056,2.132,0.536,3.036
			c0.584,0.896,1.504,1.504,2.56,1.704c2.532,0.468,5.092,0.66,7.6,0.66c11.24,0,21.312-3.864,21.824-4.064
			c1.012-0.388,1.812-1.184,2.22-2.184c0.4-1.012,0.368-2.132-0.084-3.12c-0.068-0.144-6.224-13.644-2.68-24.868
			c43.796-0.788,88.804-16.316,130.396-45.116C481.281,211.918,512.193,147.258,495.441,107.674z"/>
	</g>
</g>
<g>
</g>
<g>
</g>
<g>
</g>
<g>
</g>
<g>
</g>
<g>
</g>
<g>
</g>
<g>
</g>
<g>
</g>
<g>
</g>
<g>
</g>
<g>
</g>
<g>
</g>
<g>
</g>
<g>
</g>
</svg>
