<?xml version="1.0" encoding="iso-8859-1"?>
<!-- Generator: Adobe Illustrator 18.0.0, SVG Export Plug-In . SVG Version: 6.00 Build 0)  -->
<!DOCTYPE svg PUBLIC "-//W3C//DTD SVG 1.1//EN" "http://www.w3.org/Graphics/SVG/1.1/DTD/svg11.dtd">
<svg version="1.1" id="Capa_1" xmlns="http://www.w3.org/2000/svg" xmlns:xlink="http://www.w3.org/1999/xlink" x="0px" y="0px"
	 viewBox="0 0 268.705 268.705" style="enable-background:new 0 0 268.705 268.705;" xml:space="preserve">
<path d="M197.213,157.064c-7.588,0-31.576-128.096-31.576-128.096C164.378,12.621,150.747,0,134.353,0s-30.025,12.621-31.284,28.968
	c0,0-23.988,128.096-31.576,128.096c-30.049,0-54.409,24.36-54.409,54.409c0,30.049,24.36,54.409,54.409,54.409
	c7.277,0,14.214-1.439,20.556-4.034c-4.43-6.246-7.43-13.393-8.783-20.891c-2.014,0.366-4.16,0.571-6.396,0.571
	c-11.281,0-20.425-5.038-20.425-11.251c0-6.214,9.145-11.252,20.425-11.252c10.446,0,19.046,4.322,20.263,9.896l0.41,0.032
	c-0.787,10.22,2.756,20.396,9.721,27.917c6.965,7.522,16.838,11.836,27.089,11.836c10.251,0,20.124-4.314,27.089-11.836
	c6.964-7.521,10.507-17.696,9.72-27.917l0.411-0.032c1.217-5.574,9.817-9.896,20.263-9.896c11.281,0,20.425,5.038,20.425,11.252
	c0,6.214-9.145,11.251-20.425,11.251c-2.236,0-4.383-0.205-6.396-0.571c-1.353,7.498-4.353,14.645-8.782,20.891
	c6.343,2.594,13.28,4.034,20.556,4.034c30.049,0,54.409-24.36,54.409-54.409C251.622,181.423,227.262,157.064,197.213,157.064z
	 M100.295,175.718c-4.142,0-7.5-3.358-7.5-7.5c0-4.142,3.358-7.5,7.5-7.5c4.142,0,7.5,3.358,7.5,7.5
	C107.795,172.36,104.437,175.718,100.295,175.718z M126.956,77.534l-14,67c-0.739,3.537-3.858,5.968-7.334,5.968
	c-0.509,0-1.024-0.053-1.542-0.16c-4.055-0.848-6.654-4.821-5.808-8.876l14-67c0.848-4.055,4.826-6.645,8.876-5.808
	C125.203,69.506,127.803,73.479,126.956,77.534z"/>
<g>
</g>
<g>
</g>
<g>
</g>
<g>
</g>
<g>
</g>
<g>
</g>
<g>
</g>
<g>
</g>
<g>
</g>
<g>
</g>
<g>
</g>
<g>
</g>
<g>
</g>
<g>
</g>
<g>
</g>
</svg>
