<?xml version="1.0" encoding="iso-8859-1"?>
<!-- Generator: Adobe Illustrator 19.0.0, SVG Export Plug-In . SVG Version: 6.00 Build 0)  -->
<svg version="1.1" id="Capa_1" xmlns="http://www.w3.org/2000/svg" xmlns:xlink="http://www.w3.org/1999/xlink" x="0px" y="0px"
	 viewBox="0 0 489.6 489.6" style="enable-background:new 0 0 489.6 489.6;" xml:space="preserve">
<g>
	<g>
		<path d="M1.429,489.6h56c2.3-12.4,4.7-25.3,7-37.7c4.3-21.8,10.5-46.6,35.7-52.1c29.4-6.2,56.7,21.8,73.8,33.4
			c42.7,30.3,97.5,39.6,150,35c103.4-6.4,137.2-87.4,152.3-134.4c5.4-16.7,34.1-132.3-23.3-220.7c-25.1-44.3-75.3-55.8-122-28
			c-13.2,10.1-22.9,26.4-42.4,24.9c-30.1,0-36.1-52.5-33.8-70.7V0h-58.3v75.8c-2.7,56.5,69.5,102.7,74.2,135.2
			c13.2,31.1-1.9,67.6-24.9,92.9c-24.2,29.9-57.1,25.6-73.1,24.9c-20.6-0.8-41.2-0.4-62.2,0.8c-21.6,1.1-103.1,6.2-109,75.3V489.6z"
			/>
	</g>
</g>
<g>
</g>
<g>
</g>
<g>
</g>
<g>
</g>
<g>
</g>
<g>
</g>
<g>
</g>
<g>
</g>
<g>
</g>
<g>
</g>
<g>
</g>
<g>
</g>
<g>
</g>
<g>
</g>
<g>
</g>
</svg>
